<svg xmlns="http://www.w3.org/2000/svg" width="121.667" height="40" viewBox="0 0 121.667 40">
  <g id="Group_68" data-name="Group 68" transform="translate(-573 -137)">
    <rect id="Rectangle_3" data-name="Rectangle 3" width="121.667" height="40" rx="5" transform="translate(573 137)" fill="#231f20"/>
    <g id="_Group_" data-name="&lt;Group&gt;" transform="translate(581.659 144.24)">
      <g id="_Group_2" data-name="&lt;Group&gt;" transform="translate(0 0)">
        <g id="_Group_3" data-name="&lt;Group&gt;">
          <path id="_Path_" data-name="&lt;Path&gt;" d="M25.59,20.143a5.345,5.345,0,0,1,2.545-4.484,5.471,5.471,0,0,0-4.31-2.33c-1.814-.19-3.572,1.085-4.5,1.085-.942,0-2.365-1.066-3.9-1.035A5.74,5.74,0,0,0,10.6,16.325c-2.089,3.616-.531,8.931,1.47,11.854,1,1.431,2.171,3.03,3.7,2.974,1.5-.062,2.057-.955,3.866-.955,1.791,0,2.316.955,3.878.919,1.607-.026,2.62-1.438,3.586-2.883a11.838,11.838,0,0,0,1.64-3.34,5.165,5.165,0,0,1-3.153-4.751Z" transform="translate(-9.609 -7.636)" fill="#fff"/>
          <path id="_Path_2" data-name="&lt;Path&gt;" d="M22.286,11.617a5.262,5.262,0,0,0,1.2-3.77,5.354,5.354,0,0,0-3.464,1.792,5.007,5.007,0,0,0-1.235,3.63A4.427,4.427,0,0,0,22.286,11.617Z" transform="translate(-9.256 -7.847)" fill="#fff"/>
        </g>
      </g>
      <g id="Group_42" data-name="Group 42" transform="translate(25.774 10.41)">
        <path id="Path_40" data-name="Path 40" d="M42.605,27.489H37.69l-1.181,3.486H34.427l4.656-12.9h2.163l4.656,12.9H43.785ZM38.2,25.88h3.9l-1.921-5.657h-.054Z" transform="translate(-34.427 -17.863)" fill="#fff"/>
        <path id="Path_41" data-name="Path 41" d="M55.488,26.148c0,2.922-1.564,4.8-3.924,4.8A3.188,3.188,0,0,1,48.606,29.3h-.045v4.657h-1.93V21.446H48.5V23.01h.035a3.335,3.335,0,0,1,2.994-1.662C53.915,21.348,55.488,23.234,55.488,26.148Zm-1.984,0c0-1.9-.984-3.155-2.485-3.155-1.475,0-2.467,1.278-2.467,3.155,0,1.895.992,3.163,2.467,3.163,1.5,0,2.485-1.242,2.485-3.163Z" transform="translate(-33.956 -17.737)" fill="#fff"/>
        <path id="Path_42" data-name="Path 42" d="M65.453,26.148c0,2.922-1.564,4.8-3.924,4.8A3.188,3.188,0,0,1,58.57,29.3h-.045v4.657H56.6V21.446h1.868V23.01H58.5a3.335,3.335,0,0,1,2.994-1.662C63.88,21.348,65.453,23.234,65.453,26.148Zm-1.984,0c0-1.9-.984-3.155-2.485-3.155-1.475,0-2.467,1.278-2.467,3.155,0,1.895.992,3.163,2.467,3.163,1.5,0,2.485-1.242,2.485-3.163Z" transform="translate(-33.572 -17.737)" fill="#fff"/>
        <path id="Path_43" data-name="Path 43" d="M71.783,27.389c.143,1.279,1.385,2.119,3.083,2.119,1.627,0,2.8-.84,2.8-1.993,0-1-.706-1.6-2.377-2.011l-1.671-.4c-2.368-.572-3.468-1.68-3.468-3.477,0-2.225,1.939-3.754,4.692-3.754,2.726,0,4.594,1.528,4.657,3.754H77.548c-.117-1.287-1.181-2.064-2.735-2.064s-2.619.786-2.619,1.93c0,.912.68,1.448,2.342,1.859l1.421.349c2.646.626,3.744,1.689,3.744,3.575,0,2.413-1.921,3.924-4.978,3.924-2.86,0-4.791-1.476-4.916-3.808Z" transform="translate(-33.063 -17.871)" fill="#fff"/>
        <path id="Path_44" data-name="Path 44" d="M83.469,19.3v2.225h1.788v1.528H83.469v5.184c0,.805.358,1.181,1.144,1.181a6.029,6.029,0,0,0,.635-.045v1.519a5.3,5.3,0,0,1-1.072.089c-1.9,0-2.646-.715-2.646-2.539V23.053H80.163V21.525H81.53V19.3Z" transform="translate(-32.664 -17.816)" fill="#fff"/>
        <path id="Path_45" data-name="Path 45" d="M86.064,26.148c0-2.958,1.742-4.817,4.459-4.817s4.46,1.859,4.46,4.817-1.725,4.817-4.46,4.817S86.064,29.115,86.064,26.148Zm6.953,0c0-2.029-.93-3.227-2.494-3.227s-2.494,1.207-2.494,3.227c0,2.038.93,3.226,2.494,3.226s2.494-1.189,2.494-3.226Z" transform="translate(-32.436 -17.738)" fill="#fff"/>
        <path id="Path_46" data-name="Path 46" d="M96.185,21.446h1.841v1.6h.045a2.243,2.243,0,0,1,2.262-1.7,2.977,2.977,0,0,1,.661.072v1.805a2.7,2.7,0,0,0-.867-.117,1.945,1.945,0,0,0-2.011,2.163v5.577h-1.93Z" transform="translate(-32.046 -17.737)" fill="#fff"/>
        <path id="Path_47" data-name="Path 47" d="M109.7,28.088c-.26,1.707-1.922,2.878-4.049,2.878-2.735,0-4.433-1.833-4.433-4.773s1.707-4.862,4.352-4.862c2.6,0,4.237,1.787,4.237,4.638v.661h-6.641v.117a2.449,2.449,0,0,0,2.529,2.663,2.127,2.127,0,0,0,2.171-1.323Zm-6.524-2.806h4.7a2.261,2.261,0,0,0-2.306-2.386,2.38,2.38,0,0,0-2.394,2.386Z" transform="translate(-31.852 -17.738)" fill="#fff"/>
      </g>
    </g>
    <g id="Group_44" data-name="Group 44" transform="translate(608.726 144.854)">
      <path id="Path_48" data-name="Path 48" d="M37.909,8.731a2.741,2.741,0,0,1,2.916,3.079c0,1.98-1.07,3.118-2.916,3.118H35.671v-6.2Zm-1.276,5.32H37.8a1.948,1.948,0,0,0,2.044-2.229A1.954,1.954,0,0,0,37.8,9.607H36.633Z" transform="translate(-35.671 -8.426)" fill="#fff"/>
      <path id="Path_49" data-name="Path 49" d="M41.681,12.534a2.215,2.215,0,1,1,4.411,0,2.216,2.216,0,1,1-4.411,0Zm3.461,0c0-1.014-.455-1.606-1.255-1.606s-1.254.593-1.254,1.607.451,1.61,1.254,1.61S45.143,13.552,45.143,12.534Z" transform="translate(-35.44 -8.373)" fill="#fff"/>
      <path id="Path_50" data-name="Path 50" d="M51.766,14.871h-.957l-.967-3.444h-.073l-.962,3.444h-.948l-1.289-4.676h.936l.838,3.568h.069l.961-3.568h.885l.961,3.568h.073l.834-3.568h.923Z" transform="translate(-35.251 -8.369)" fill="#fff"/>
      <path id="Path_51" data-name="Path 51" d="M53.853,10.2h.888v.743h.069a1.4,1.4,0,0,1,1.4-.833,1.521,1.521,0,0,1,1.619,1.739v3.027H56.9v-2.8c0-.752-.327-1.125-1.009-1.125a1.073,1.073,0,0,0-1.117,1.185v2.736h-.923Z" transform="translate(-34.97 -8.373)" fill="#fff"/>
      <path id="Path_52" data-name="Path 52" d="M59.094,8.437h.923v6.5h-.923Z" transform="translate(-34.768 -8.437)" fill="#fff"/>
      <path id="Path_53" data-name="Path 53" d="M61.218,12.534a2.216,2.216,0,1,1,4.411,0,2.216,2.216,0,1,1-4.411,0Zm3.461,0c0-1.014-.455-1.606-1.255-1.606s-1.254.593-1.254,1.607.451,1.61,1.254,1.61S64.68,13.552,64.68,12.534Z" transform="translate(-34.686 -8.373)" fill="#fff"/>
      <path id="Path_54" data-name="Path 54" d="M66.4,13.552c0-.842.627-1.327,1.739-1.4l1.267-.073v-.4c0-.494-.327-.773-.957-.773-.515,0-.872.189-.975.52h-.894c.094-.8.85-1.318,1.911-1.318,1.172,0,1.834.584,1.834,1.572v3.2h-.888v-.657h-.073a1.573,1.573,0,0,1-1.4.734,1.413,1.413,0,0,1-1.559-1.4Zm3.006-.4v-.391l-1.142.073c-.644.043-.936.262-.936.674s.365.666.867.666a1.1,1.1,0,0,0,1.211-1.022Z" transform="translate(-34.486 -8.373)" fill="#fff"/>
      <path id="Path_55" data-name="Path 55" d="M71.348,12.6c0-1.478.76-2.414,1.941-2.414a1.541,1.541,0,0,1,1.434.82h.069V8.437h.923v6.5h-.884V14.2h-.073a1.623,1.623,0,0,1-1.469.816C72.1,15.016,71.348,14.08,71.348,12.6Zm.953,0c0,.992.468,1.589,1.25,1.589s1.259-.605,1.259-1.585-.486-1.589-1.259-1.589-1.25.6-1.25,1.585Z" transform="translate(-34.296 -8.437)" fill="#fff"/>
      <path id="Path_56" data-name="Path 56" d="M79.23,12.534a2.215,2.215,0,1,1,4.411,0,2.216,2.216,0,1,1-4.411,0Zm3.461,0c0-1.014-.455-1.606-1.255-1.606s-1.254.593-1.254,1.607.451,1.61,1.254,1.61S82.692,13.552,82.692,12.534Z" transform="translate(-33.992 -8.373)" fill="#fff"/>
      <path id="Path_57" data-name="Path 57" d="M84.669,10.2h.888v.743h.069a1.4,1.4,0,0,1,1.4-.833,1.521,1.521,0,0,1,1.619,1.739v3.027h-.923v-2.8c0-.752-.327-1.125-1.009-1.125a1.073,1.073,0,0,0-1.117,1.185v2.736h-.923Z" transform="translate(-33.782 -8.373)" fill="#fff"/>
      <path id="Path_58" data-name="Path 58" d="M93.577,9.074v1.186H94.59v.777H93.577v2.4c0,.49.2.7.661.7a3.081,3.081,0,0,0,.352-.021v.769a3.028,3.028,0,0,1-.5.047c-1.026,0-1.435-.361-1.435-1.263V11.037h-.742v-.777h.742V9.074Z" transform="translate(-33.503 -8.412)" fill="#fff"/>
      <path id="Path_59" data-name="Path 59" d="M95.7,8.437h.915v2.577h.073a1.439,1.439,0,0,1,1.426-.838,1.541,1.541,0,0,1,1.611,1.743v3.019h-.924V12.147c0-.747-.348-1.125-1-1.125a1.092,1.092,0,0,0-1.177,1.186v2.731H95.7Z" transform="translate(-33.357 -8.437)" fill="#fff"/>
      <path id="Path_60" data-name="Path 60" d="M104.917,13.612a1.9,1.9,0,0,1-2.026,1.353,2.124,2.124,0,0,1-2.16-2.414,2.157,2.157,0,0,1,2.156-2.443c1.3,0,2.086.889,2.086,2.357v.322h-3.3v.052a1.236,1.236,0,0,0,1.245,1.34,1.121,1.121,0,0,0,1.113-.567ZM101.671,12.1h2.362a1.128,1.128,0,0,0-1.151-1.211,1.2,1.2,0,0,0-1.211,1.212Z" transform="translate(-33.164 -8.373)" fill="#fff"/>
    </g>
  </g>
</svg>
