<svg xmlns="http://www.w3.org/2000/svg" width="32.667" height="35.637" viewBox="0 0 32.667 35.637">
  <g id="calendar" transform="translate(-20)">
    <g id="Group_958" data-name="Group 958" transform="translate(20)">
      <g id="Group_957" data-name="Group 957" transform="translate(0)">
        <path id="Path_5768" data-name="Path 5768" d="M49.1,1.188H47.322V.594a.594.594,0,0,0-1.188,0v.594H44.946V.594a.594.594,0,0,0-1.188,0v.594H42.57V.594a.594.594,0,0,0-1.188,0v.594H40.194V.594a.594.594,0,0,0-1.188,0v.594H30.691V.594a.594.594,0,0,0-1.188,0v.594H28.315V.594a.594.594,0,0,0-1.188,0v.594H25.94V.594a.594.594,0,0,0-1.188,0v.594H23.564V.594a.594.594,0,0,0-1.188,0v.594H20.594A.594.594,0,0,0,20,1.782V29.7a.594.594,0,0,0,.594.594H37.848a.594.594,0,0,0,.6-.592c0-.014,0-.029,0-.043l0-.069c-.013-.16-.025-.321-.025-.483a7.687,7.687,0,0,1,.207-1.746,7.587,7.587,0,0,1,.589-1.646c.026-.052.049-.105.075-.157.079-.151.165-.3.253-.442.028-.046.055-.093.084-.138q.144-.226.3-.441l.067-.09q.178-.233.37-.451l.018-.02a7.827,7.827,0,0,1,3.107-2.115l.1-.039c.16-.056.323-.106.488-.153.074-.021.15-.04.225-.059.139-.034.279-.067.42-.093.119-.022.242-.039.364-.055s.214-.033.323-.043c.238-.023.479-.037.723-.037.161,0,.32.012.475.023l.074.005H46.7a7.758,7.758,0,0,1,2.19.49.594.594,0,0,0,.81-.553V1.782A.594.594,0,0,0,49.1,1.188ZM38.445,24.627c-.021.034-.043.066-.062.1-.086.15-.163.305-.238.461-.042.086-.085.17-.124.258-.065.143-.125.289-.182.437l-.018.043V23.164h1.693A8.971,8.971,0,0,0,38.445,24.627Zm2.938-3.046c-.2.129-.4.267-.594.412v-.017h-2.97V18.413h3.564Zm0-4.356H37.819V13.661h3.564Zm0-4.752H37.819V8.909h3.564Zm4.752,1.188v3.564H42.57V13.661ZM42.57,12.473V8.909h3.564v3.564Zm3.565,7.721c-.278,0-.552.016-.824.042-.119.011-.23.029-.345.044-.146.02-.29.04-.434.067s-.3.059-.449.1c-.091.022-.182.045-.272.07-.178.049-.356.1-.535.161l-.067.025c-.216.075-.43.154-.638.245V18.413h3.564Zm2.375.328a8.827,8.827,0,0,0-1.188-.246V8.315a.594.594,0,0,0-.594-.594H22.97a.594.594,0,0,0-.594.594V27.322a.594.594,0,0,0,.594.594H37.313a8.908,8.908,0,0,0-.089,1.188H21.188V6.533H48.51ZM33.067,21.976V18.413h3.564v3.564Zm3.564,1.188v3.564H33.067V23.164Zm-3.564-5.94V13.661h3.564v3.564Zm0-4.752V8.909h3.564v3.564Zm-4.752,9.5V18.413h3.564v3.564Zm3.564,1.188v3.564H28.315V23.164Zm-3.564-5.94V13.661h3.564v3.564Zm0-4.752V8.909h3.564v3.564Zm-4.752,9.5V18.413h3.564v3.564Zm3.564,1.188v3.564H23.564V23.164Zm-3.564-5.94V13.661h3.564v3.564Zm0-4.752V8.909h3.564v3.564ZM48.51,5.346H21.188V2.376h1.188V2.97a.594.594,0,0,0,1.188,0V2.376h1.188V2.97a.594.594,0,0,0,1.188,0V2.376h1.188V2.97a.594.594,0,0,0,1.188,0V2.376H29.5V2.97a.594.594,0,0,0,1.188,0V2.376h8.315V2.97a.594.594,0,0,0,1.188,0V2.376h1.188V2.97a.594.594,0,0,0,1.188,0V2.376h1.188V2.97a.594.594,0,0,0,1.188,0V2.376h1.188V2.97a.594.594,0,0,0,1.188,0V2.376H48.51Z" transform="translate(-20)" fill="#fff"/>
      </g>
    </g>
    <g id="Group_960" data-name="Group 960" transform="translate(39.6 22.57)">
      <g id="Group_959" data-name="Group 959" transform="translate(0)">
        <path id="Path_5769" data-name="Path 5769" d="M290.533,304a6.533,6.533,0,1,0,6.533,6.533A6.533,6.533,0,0,0,290.533,304Zm0,11.879a5.346,5.346,0,1,1,5.346-5.346A5.346,5.346,0,0,1,290.533,315.879Z" transform="translate(-284 -304)" fill="#fff"/>
      </g>
    </g>
    <g id="Group_962" data-name="Group 962" transform="translate(43.765 25.547)">
      <g id="Group_961" data-name="Group 961">
        <path id="Path_5770" data-name="Path 5770" d="M345.841,344.264a.594.594,0,0,0-.825,0l-2.55,2.55-1.362-1.362a.594.594,0,0,0-.84.84l1.782,1.782a.594.594,0,0,0,.84,0l2.97-2.97A.594.594,0,0,0,345.841,344.264Z" transform="translate(-340.098 -344.098)" fill="#fff"/>
      </g>
    </g>
  </g>
</svg>
