<svg xmlns="http://www.w3.org/2000/svg" width="25.104" height="25.086" viewBox="0 0 25.104 25.086">
  <g id="call" transform="translate(-0.484 -0.432)">
    <g id="Group_964" data-name="Group 964" transform="translate(1 1.018)">
      <g id="Group_963" data-name="Group 963" transform="translate(0 0)">
        <path id="Path_5771" data-name="Path 5771" d="M24.372,19.533l-4.858-3.24a1.418,1.418,0,0,0-1.9.308L16.2,18.421a.6.6,0,0,1-.776.163l-.269-.148a16.268,16.268,0,0,1-4.24-3.33,16.334,16.334,0,0,1-3.33-4.24L7.438,10.6a.606.606,0,0,1,.16-.778L9.416,8.4a1.419,1.419,0,0,0,.309-1.9L6.486,1.648a1.411,1.411,0,0,0-1.9-.428L2.553,2.44a2.866,2.866,0,0,0-1.307,1.7C.514,6.8,1.065,11.4,7.841,18.178c5.39,5.39,9.4,6.839,12.162,6.839a7.086,7.086,0,0,0,1.88-.246,2.863,2.863,0,0,0,1.7-1.307l1.222-2.03A1.411,1.411,0,0,0,24.372,19.533Zm-.262,1.492-1.219,2.031a2.067,2.067,0,0,1-1.22.946c-2.461.676-6.759.116-13.265-6.39S1.342,6.808,2.018,4.347a2.07,2.07,0,0,1,.947-1.222L5,1.907a.612.612,0,0,1,.825.186l1.76,2.642L9.058,6.95a.616.616,0,0,1-.134.824L7.106,9.189a1.4,1.4,0,0,0-.371,1.8l.144.262a16.968,16.968,0,0,0,3.467,4.424,16.986,16.986,0,0,0,4.423,3.467l.263.145a1.4,1.4,0,0,0,1.8-.371l1.415-1.819a.616.616,0,0,1,.824-.134l4.858,3.24A.612.612,0,0,1,24.111,21.025Z" transform="translate(-1 -1.018)" fill="#fff" stroke="#fff" stroke-miterlimit="10" stroke-width="1"/>
        <path id="Path_5772" data-name="Path 5772" d="M283.028,70.124a6.807,6.807,0,0,1,6.8,6.8.4.4,0,1,0,.8,0,7.608,7.608,0,0,0-7.6-7.6.4.4,0,0,0,0,.8Z" transform="translate(-269.428 -66.122)" fill="#fff" stroke="#fff" stroke-miterlimit="10" stroke-width="1"/>
        <path id="Path_5773" data-name="Path 5773" d="M283.028,121.324a4.4,4.4,0,0,1,4.4,4.4.4.4,0,1,0,.8,0,5.206,5.206,0,0,0-5.2-5.2.4.4,0,0,0,0,.8Z" transform="translate(-269.428 -114.923)" fill="#fff" stroke="#fff" stroke-miterlimit="10" stroke-width="1"/>
        <path id="Path_5774" data-name="Path 5774" d="M283.028,172.524a2,2,0,0,1,2,2,.4.4,0,0,0,.8,0,2.8,2.8,0,0,0-2.8-2.8.4.4,0,0,0,0,.8Z" transform="translate(-269.428 -163.723)" fill="#fff" stroke="#fff" stroke-miterlimit="10" stroke-width="1"/>
      </g>
    </g>
  </g>
</svg>
