<svg xmlns="http://www.w3.org/2000/svg" width="26.724" height="40" viewBox="0 0 26.724 40">
  <g id="doctor" transform="translate(-79.489 0)">
    <g id="Group_924" data-name="Group 924" transform="translate(87.506 13.277)">
      <g id="Group_923" data-name="Group 923" transform="translate(0)">
        <path id="Path_5758" data-name="Path 5758" d="M177.493,158.978a2,2,0,0,0-2,2v.668h1.336v-.668a.668.668,0,0,1,1.336,0v.668H179.5v-.668A2,2,0,0,0,177.493,158.978Z" transform="translate(-175.489 -158.978)" fill="#fff"/>
      </g>
    </g>
    <g id="Group_926" data-name="Group 926" transform="translate(94.187 13.277)">
      <g id="Group_925" data-name="Group 925" transform="translate(0)">
        <path id="Path_5759" data-name="Path 5759" d="M257.493,158.978a2,2,0,0,0-2,2v.668h1.336v-.668a.668.668,0,0,1,1.336,0v.668H259.5v-.668A2,2,0,0,0,257.493,158.978Z" transform="translate(-255.489 -158.978)" fill="#fff"/>
      </g>
    </g>
    <g id="Group_928" data-name="Group 928" transform="translate(90.178 17.285)">
      <g id="Group_927" data-name="Group 927" transform="translate(0)">
        <path id="Path_5760" data-name="Path 5760" d="M207.489,206.978v1.336a2.672,2.672,0,0,0,5.345,0v-1.336Zm2.672,2.672a1.336,1.336,0,0,1-1.336-1.336H211.5A1.336,1.336,0,0,1,210.161,209.65Z" transform="translate(-207.489 -206.978)" fill="#fff"/>
      </g>
    </g>
    <g id="Group_930" data-name="Group 930" transform="translate(79.489 0)">
      <g id="Group_929" data-name="Group 929" transform="translate(0 0)">
        <path id="Path_5761" data-name="Path 5761" d="M102.034,23.587a5.386,5.386,0,0,0-.293-6.322,2,2,0,0,0-.205-3.988h-.668V4.191a2.01,2.01,0,0,0-1.319-1.883L93.536.121a2.01,2.01,0,0,0-1.37,0L86.153,2.308a2.01,2.01,0,0,0-1.319,1.883v9.086h-.668a2,2,0,0,0-.205,3.988,5.386,5.386,0,0,0-.293,6.322,6.022,6.022,0,0,0-4.178,5.724V40h26.724V29.311A6.022,6.022,0,0,0,102.034,23.587Zm-1.166-8.974h.668a.668.668,0,1,1,0,1.336h-.668ZM100.6,17.98a4.04,4.04,0,0,1-.041,5.336c-.119-.007-.237-.018-.357-.018H96.046A8.043,8.043,0,0,0,100.6,17.98ZM99.532,10.6H99.3a8.394,8.394,0,0,1-4.556-1.336h4.786ZM86.17,4.191a.668.668,0,0,1,.44-.627l6.013-2.187a.662.662,0,0,1,.457,0l6.013,2.187a.668.668,0,0,1,.44.627V7.932H86.17Zm0,5.077h6.424A9.717,9.717,0,0,0,99.3,11.941h.229v4.009a6.681,6.681,0,1,1-13.362,0ZM85.1,17.98A8.043,8.043,0,0,0,89.656,23.3H85.5c-.12,0-.238.011-.357.018A4.04,4.04,0,0,1,85.1,17.98Zm1.066,9.995a.668.668,0,1,1-.668-.668A.668.668,0,0,1,86.17,27.975ZM83.5,15.281a.668.668,0,0,1,.668-.668h.668v1.336h-.668A.668.668,0,0,1,83.5,15.281Zm8.685,23.383H80.825V29.311a4.68,4.68,0,0,1,4.009-4.623v1.4a2,2,0,1,0,1.336,0V24.634h3.34V25.3a3.34,3.34,0,0,0,2.672,3.274ZM91.434,26.72a1.994,1.994,0,0,1-.587-1.418v-.668h4.009V25.3a1.994,1.994,0,0,1-.587,1.418A2.053,2.053,0,0,1,91.434,26.72Zm13.443,11.944H93.519V28.576A3.34,3.34,0,0,0,96.191,25.3v-.668h3.34v1.4a3.346,3.346,0,0,0-2.672,3.274v2.672a2,2,0,0,0,2,2h.668V32.651h-.668a.668.668,0,0,1-.668-.668V29.311a2,2,0,1,1,4.009,0v2.672a.668.668,0,0,1-.668.668h-.668v1.336h.668a2,2,0,0,0,2-2V29.311a3.346,3.346,0,0,0-2.672-3.274v-1.35a4.68,4.68,0,0,1,4.009,4.623Z" transform="translate(-79.489 0)" fill="#fff"/>
      </g>
    </g>
    <g id="Group_932" data-name="Group 932" transform="translate(89.51 33.32)">
      <g id="Group_931" data-name="Group 931" transform="translate(0)">
        <rect id="Rectangle_771" data-name="Rectangle 771" width="1.336" height="1.336" fill="#fff"/>
      </g>
    </g>
    <g id="Group_934" data-name="Group 934" transform="translate(89.51 30.647)">
      <g id="Group_933" data-name="Group 933" transform="translate(0)">
        <rect id="Rectangle_772" data-name="Rectangle 772" width="1.336" height="1.336" fill="#fff"/>
      </g>
    </g>
    <g id="Group_936" data-name="Group 936" transform="translate(90.847 2.587)">
      <g id="Group_935" data-name="Group 935">
        <path id="Path_5762" data-name="Path 5762" d="M218.161,32.314V30.978h-1.336v1.336h-1.336V33.65h1.336v1.336h1.336V33.65H219.5V32.314Z" transform="translate(-215.489 -30.978)" fill="#fff"/>
      </g>
    </g>
    <g id="Group_938" data-name="Group 938" transform="translate(89.51 35.992)">
      <g id="Group_937" data-name="Group 937" transform="translate(0)">
        <rect id="Rectangle_773" data-name="Rectangle 773" width="1.336" height="1.336" fill="#fff"/>
      </g>
    </g>
  </g>
</svg>
