<svg id="Group_3340" data-name="Group 3340" xmlns="http://www.w3.org/2000/svg" width="57.954" height="72.099" viewBox="0 0 57.954 72.099">
  <rect id="Rectangle_1" data-name="Rectangle 1" width="10.496" height="26.219" transform="translate(28.853 15.725)" fill="#fff"/>
  <path id="Path_1" data-name="Path 1" d="M57.669,18.357V0H0V10.5H7.862V47.21H0V57.67H57.669V39.313H47.209v7.9H20.99V34.082H47.209v-10.5H20.99V10.5H47.209v7.862Z" fill="#fff"/>
  <g id="Group_1" data-name="Group 1" transform="translate(0.175 62.544)">
    <path id="Path_2" data-name="Path 2" d="M.5,179.1H9.31v2.772H4.185v.6h4.95v2.211H4.185v.6H9.31v2.772H.5Z" transform="translate(-0.5 -178.78)" fill="#fff"/>
    <path id="Path_3" data-name="Path 3" d="M34.8,188.016V179.1h3.65v3.053h.211l2.809-3.053h4.042l-3.756,3.966,3.826,4.95H41.855l-2.141-2.843H39.5l-1.053,1.088v1.755Z" transform="translate(-22.76 -178.78)" fill="#fff"/>
    <path id="Path_4" data-name="Path 4" d="M73.3,179.1h3.685v8.916H73.3Z" transform="translate(-47.748 -178.78)" fill="#fff"/>
    <path id="Path_5" data-name="Path 5" d="M92.9,179.1h4.6l.984,4.283h.281l.984-4.283h4.6v8.916h-3.476v-2.984h-.281l-.6,2.984H97.323l-.632-2.984H96.41v2.984H92.935V179.1Z" transform="translate(-60.468 -178.78)" fill="#fff"/>
    <path id="Path_6" data-name="Path 6" d="M135.576,186.454a4.335,4.335,0,0,1-1.474-3.474,4.433,4.433,0,0,1,1.474-3.474,5.861,5.861,0,0,1,3.966-1.3,5.748,5.748,0,0,1,3.966,1.3,4.335,4.335,0,0,1,1.474,3.474,4.433,4.433,0,0,1-1.474,3.474A6.706,6.706,0,0,1,135.576,186.454Zm5.229-2.176a1.864,1.864,0,0,0,0-2.6,1.987,1.987,0,0,0-1.263-.456,1.808,1.808,0,0,0-1.263.456,1.622,1.622,0,0,0-.492,1.3,1.642,1.642,0,0,0,.527,1.3,1.809,1.809,0,0,0,1.263.456,1.782,1.782,0,0,0,1.229-.46Z" transform="translate(-87.209 -178.198)" fill="#fff"/>
  </g>
</svg>
