<svg xmlns="http://www.w3.org/2000/svg" width="135.833" height="40" viewBox="0 0 135.833 40">
  <g id="Group_67" data-name="Group 67" transform="translate(-387 -137)">
    <rect id="Rectangle_2" data-name="Rectangle 2" width="135.833" height="40" rx="5" transform="translate(387 137)" fill="#231f20"/>
    <g id="g18" transform="translate(428.317 143.818)">
      <path id="path20" d="M57.57,20.064a2.693,2.693,0,0,1-.746,1.989,2.955,2.955,0,0,1-2.218.883,3.066,3.066,0,0,1-2.217-.893,3.151,3.151,0,0,1,0-4.437,3.051,3.051,0,0,1,2.217-.9,3.188,3.188,0,0,1,1.237.252,2.451,2.451,0,0,1,.942.664l-.525.524a2.058,2.058,0,0,0-1.654-.7,2.317,2.317,0,0,0-1.648.659,2.482,2.482,0,0,0,0,3.439,2.338,2.338,0,0,0,1.648.659,2.306,2.306,0,0,0,1.683-.664,1.859,1.859,0,0,0,.5-1.208H54.605v-.718h2.919A2.016,2.016,0,0,1,57.57,20.064Z" transform="translate(-51.475 -16.709)" fill="#fff"/>
    </g>
    <g id="g22" transform="translate(435.524 143.955)">
      <path id="path24" d="M62.183,17.576H59.441v1.887h2.472v.718H59.441v1.887h2.742V22.8H58.665V16.845h3.518Z" transform="translate(-58.665 -16.845)" fill="#fff"/>
    </g>
    <g id="g26" transform="translate(439.853 143.955)">
      <path id="path28" d="M65.441,22.8h-.776V17.576H62.983v-.731h4.141v.731H65.441Z" transform="translate(-62.983 -16.845)" fill="#fff"/>
    </g>
    <g id="g30" transform="translate(446.991 143.955)">
      <path id="path32" d="M70.1,22.8V16.845h.775V22.8Z" transform="translate(-70.103 -16.845)" fill="#fff"/>
    </g>
    <g id="g34" transform="translate(448.743 143.955)">
      <path id="path36" d="M74.309,22.8h-.77V17.576H71.851v-.731H76v.731H74.309Z" transform="translate(-71.851 -16.845)" fill="#fff"/>
    </g>
    <g id="g38" transform="translate(455.421 143.818)">
      <path id="path40" d="M83.822,22.033a3.159,3.159,0,0,1-4.421,0,3.2,3.2,0,0,1,0-4.422,3.146,3.146,0,0,1,4.416,0,3.184,3.184,0,0,1,.005,4.417Zm-3.847-.5a2.336,2.336,0,0,0,3.273,0,2.517,2.517,0,0,0,0-3.424,2.336,2.336,0,0,0-3.273,0,2.517,2.517,0,0,0,0,3.424Z" transform="translate(-78.512 -16.709)" fill="#fff"/>
    </g>
    <g id="g42" transform="translate(462.706 143.955)">
      <path id="path44" d="M85.781,22.8V16.845h.942l2.929,4.631h.034l-.034-1.145V16.845h.775V22.8h-.809L86.551,17.94h-.034l.034,1.15V22.8Z" transform="translate(-85.781 -16.845)" fill="#fff"/>
    </g>
    <path id="path46" d="M78.389-27.974A4.189,4.189,0,0,0,74.1-23.75a4.2,4.2,0,0,0,4.288,4.223,4.2,4.2,0,0,0,4.293-4.223A4.19,4.19,0,0,0,78.389-27.974Zm0,6.785a2.454,2.454,0,0,1-2.409-2.56,2.443,2.443,0,0,1,2.409-2.561A2.447,2.447,0,0,1,80.8-23.75,2.458,2.458,0,0,1,78.389-21.19Zm-9.356-6.785a4.186,4.186,0,0,0-4.288,4.225,4.2,4.2,0,0,0,4.288,4.223A4.2,4.2,0,0,0,73.32-23.75,4.187,4.187,0,0,0,69.032-27.974Zm0,6.785a2.458,2.458,0,0,1-2.414-2.56,2.447,2.447,0,0,1,2.414-2.561,2.443,2.443,0,0,1,2.409,2.561A2.454,2.454,0,0,1,69.032-21.19ZM57.9-26.679v1.8h4.337a3.706,3.706,0,0,1-.986,2.254A4.483,4.483,0,0,1,57.9-21.32a4.734,4.734,0,0,1-4.759-4.767A4.734,4.734,0,0,1,57.9-30.854a4.629,4.629,0,0,1,3.268,1.28l1.28-1.265A6.367,6.367,0,0,0,57.9-32.648a6.693,6.693,0,0,0-6.736,6.561A6.693,6.693,0,0,0,57.9-19.526a6.1,6.1,0,0,0,4.632-1.842,5.879,5.879,0,0,0,1.57-4.19,5.938,5.938,0,0,0-.1-1.121H57.9Zm45.527,1.392a3.96,3.96,0,0,0-3.66-2.686,4.036,4.036,0,0,0-4.028,4.225,4.157,4.157,0,0,0,4.239,4.223,4.249,4.249,0,0,0,3.562-1.872l-1.457-.96a2.449,2.449,0,0,1-2.105,1.168,2.176,2.176,0,0,1-2.07-1.28l5.716-2.338-.2-.48ZM97.6-23.881a2.33,2.33,0,0,1,2.232-2.463,1.664,1.664,0,0,1,1.59.9Zm-4.646,4.1H94.83V-32.2H92.951Zm-3.077-7.25h-.063a2.977,2.977,0,0,0-2.247-.941,4.224,4.224,0,0,0-4.1,4.238,4.207,4.207,0,0,0,4.1,4.21,2.933,2.933,0,0,0,2.247-.96h.063v.606A2.176,2.176,0,0,1,87.593-17.4a2.37,2.37,0,0,1-2.154-1.508l-1.634.674a4.077,4.077,0,0,0,3.788,2.5c2.2,0,4.062-1.281,4.062-4.4v-7.585H89.874ZM87.725-21.19a2.436,2.436,0,0,1-2.379-2.546,2.453,2.453,0,0,1,2.379-2.575,2.391,2.391,0,0,1,2.282,2.575A2.373,2.373,0,0,1,87.725-21.19Zm24.5-11.008h-4.494v12.414H109.6v-4.7h2.62a3.961,3.961,0,0,0,4.122-3.856A3.964,3.964,0,0,0,112.223-32.2Zm.049,5.984H109.6v-4.257h2.669a2.166,2.166,0,0,1,2.2,2.128A2.179,2.179,0,0,1,112.272-26.214ZM123.857-28a3.522,3.522,0,0,0-3.341,1.9l1.663.689a1.779,1.779,0,0,1,1.712-.912,1.8,1.8,0,0,1,1.973,1.6v.13a4.156,4.156,0,0,0-1.958-.48c-1.791,0-3.616.975-3.616,2.793a2.888,2.888,0,0,0,3.116,2.735,2.66,2.66,0,0,0,2.394-1.217h.064v.96h1.81v-4.762C127.674-26.766,126.011-28,123.857-28Zm-.226,6.8c-.613,0-1.467-.3-1.467-1.052,0-.961,1.065-1.33,1.987-1.33a3.394,3.394,0,0,1,1.713.417A2.266,2.266,0,0,1,123.631-21.195Zm10.638-6.531-2.154,5.382h-.064l-2.227-5.382H127.8l3.346,7.521-1.909,4.185H131.2l5.156-11.706Zm-16.893,7.943h1.879V-32.2h-1.879Z" transform="translate(376.84 186.578)" fill="#fff"/>
    <g id="g48" transform="translate(396.783 144.415)">
      <path id="path64" d="M20.485-42.067a1.963,1.963,0,0,0-.466,1.4v21.964a1.963,1.963,0,0,0,.466,1.4l.073.067,12.453-12.3v-.291l-12.453-12.3Z" transform="translate(-20.019 42.139)" fill="#15d1e6"/>
    </g>
    <g id="g66" transform="translate(409.774 152.615)">
      <path id="path78" d="M37.125-25.463l-4.146-4.1v-.29l4.151-4.1.093.053,4.916,2.765c1.4.785,1.4,2.076,0,2.865l-4.916,2.76-.1.053Z" transform="translate(-32.979 33.96)" fill="#fbf43a"/>
    </g>
    <g id="g80" transform="translate(397.25 156.863)">
      <path id="path88" d="M37.254-25.527l-4.244-4.195L20.484-17.341a1.652,1.652,0,0,0,2.09.058l14.68-8.244" transform="translate(-20.484 29.722)" fill="#ff0057"/>
    </g>
    <g id="g90" transform="translate(397.25 144.092)">
      <path id="path104" d="M37.254-33.886,22.574-42.13a1.657,1.657,0,0,0-2.09.063L33.009-29.691Z" transform="translate(-20.484 42.461)" fill="#00e5ff"/>
    </g>
  </g>
</svg>
