<svg xmlns="http://www.w3.org/2000/svg" xmlns:xlink="http://www.w3.org/1999/xlink" width="647.842" height="754.766" viewBox="0 0 647.842 754.766">
  <defs>
    <pattern id="pattern" width="1" height="1" viewBox="-16.93 -16.93 323.018 521.558">
      <use preserveAspectRatio="none" xlink:href="#image"/>
    </pattern>
    <clipPath id="clip-path">
      <path id="Mask" d="M182.17,198.159q0,89.5.005,179a18.5,18.5,0,0,1-2.841,10.106,18.7,18.7,0,0,1-13.327,8.764,16.677,16.677,0,0,1-2.693.195q-72.208.014-144.416.006A18.927,18.927,0,0,1,.238,380.307a20.97,20.97,0,0,1-.222-3.283Q0,334.875.008,292.726.008,155.963,0,19.2A18.618,18.618,0,0,1,2.565,9.438,18.509,18.509,0,0,1,15.725.31a16.735,16.735,0,0,1,2.85-.292C24.86-.008,31.146,0,37.431.005a2.436,2.436,0,0,1,2.684,2.416c.064.613.1,1.231.108,1.847a9.7,9.7,0,0,0,.731,3.791,10.16,10.16,0,0,0,8.566,6.5,17.969,17.969,0,0,0,2.191.113q39.824.008,79.649.005A10.755,10.755,0,0,0,136.8,13.4a10.237,10.237,0,0,0,5.485-9.009c.028-.729.048-1.46.121-2.185a2.431,2.431,0,0,1,2.3-2.2c.2-.015.394-.006.592-.006q8.92,0,17.841,0a18.909,18.909,0,0,1,18.591,14.882,30.552,30.552,0,0,1,.429,3.684c.043.447.008.9.008,1.352V198.159" transform="translate(0 0)" fill="#fefefe"/>
    </clipPath>
    <pattern id="pattern-2" preserveAspectRatio="xMidYMid slice" width="100%" height="100%" viewBox="0 0 2155 4686">
      <image width="2155" height="4686" xlink:href="Group%201048-image3.png"/>
    </pattern>
    <image id="image" preserveAspectRatio="none" width="306.088" height="494.222" xlink:href="Group%201048-image.png"/>
    <pattern id="pattern-3" width="1" height="1" viewBox="-16.93 -16.93 323.018 521.558">
      <use xlink:href="#image"/>
    </pattern>
    <clipPath id="clip-path-2">
      <path id="Mask-2" data-name="Mask" d="M182.17,198.159q0,89.5.005,179a18.5,18.5,0,0,1-2.841,10.106,18.7,18.7,0,0,1-13.327,8.764,16.677,16.677,0,0,1-2.693.195q-72.208.014-144.416.006A18.927,18.927,0,0,1,.238,380.307a20.971,20.971,0,0,1-.222-3.283Q0,334.875.008,292.726.008,155.963,0,19.2A18.618,18.618,0,0,1,2.565,9.438,18.509,18.509,0,0,1,15.725.31a16.735,16.735,0,0,1,2.85-.292C24.86-.008,31.146,0,37.431.005a2.436,2.436,0,0,1,2.684,2.416c.064.613.1,1.231.108,1.847a9.7,9.7,0,0,0,.731,3.791,10.16,10.16,0,0,0,8.566,6.5,17.969,17.969,0,0,0,2.191.113q39.824.008,79.649.005A10.755,10.755,0,0,0,136.8,13.4a10.237,10.237,0,0,0,5.485-9.009c.028-.729.048-1.46.121-2.185a2.431,2.431,0,0,1,2.3-2.2c.2-.015.394-.006.592-.006q8.92,0,17.841,0a18.909,18.909,0,0,1,18.591,14.882,30.552,30.552,0,0,1,.429,3.684c.043.447.008.9.008,1.352V198.159" fill="#fefefe"/>
    </clipPath>
    <clipPath id="clip-path-3">
      <path id="Mask-3" data-name="Mask" d="M182.17,198.16q0,89.5.005,179a18.5,18.5,0,0,1-2.841,10.106,18.7,18.7,0,0,1-13.327,8.764,16.681,16.681,0,0,1-2.693.195q-72.208.014-144.416.006A18.927,18.927,0,0,1,.238,380.307a20.971,20.971,0,0,1-.222-3.283Q0,334.875.008,292.726.008,155.963,0,19.2A18.618,18.618,0,0,1,2.565,9.438,18.509,18.509,0,0,1,15.725.31a16.735,16.735,0,0,1,2.85-.292C24.86-.008,31.146,0,37.431.005a2.436,2.436,0,0,1,2.684,2.416c.064.613.1,1.231.108,1.847a9.7,9.7,0,0,0,.731,3.791,10.16,10.16,0,0,0,8.566,6.5,17.969,17.969,0,0,0,2.191.113q39.824.008,79.648.005A10.755,10.755,0,0,0,136.8,13.4a10.237,10.237,0,0,0,5.485-9.009c.028-.729.048-1.46.121-2.185a2.431,2.431,0,0,1,2.3-2.2c.2-.015.394-.006.592-.006q8.92,0,17.841,0a18.909,18.909,0,0,1,18.591,14.882,30.549,30.549,0,0,1,.429,3.684c.043.447.008.9.008,1.352q0,89.118,0,178.237" fill="#fefefe"/>
    </clipPath>
    <image id="image-2" width="211.218" height="420.068" xlink:href="Group%201048-image2.png"/>
  </defs>
  <g id="Group_1048" data-name="Group 1048" transform="translate(-89.811 -1178)">
    <g id="Group_1047" data-name="Group 1047" transform="translate(55)">
      <g id="Group_1046" data-name="Group 1046" transform="translate(34.811 1685.655) rotate(-60)">
        <rect id="Shadow" width="306.088" height="494.222" transform="translate(0 0)" opacity="0.329" fill="url(#pattern)"/>
        <use id="iPhone_X" data-name="iPhone X" transform="translate(76.776 22.153)" xlink:href="#image-2"/>
        <g id="Mockup" transform="translate(91.549 33.227)">
          <path id="Mask-4" data-name="Mask" d="M182.17,198.159q0,89.5.005,179a18.5,18.5,0,0,1-2.841,10.106,18.7,18.7,0,0,1-13.327,8.764,16.677,16.677,0,0,1-2.693.195q-72.208.014-144.416.006A18.927,18.927,0,0,1,.238,380.307a20.97,20.97,0,0,1-.222-3.283Q0,334.875.008,292.726.008,155.963,0,19.2A18.618,18.618,0,0,1,2.565,9.438,18.509,18.509,0,0,1,15.725.31a16.735,16.735,0,0,1,2.85-.292C24.86-.008,31.146,0,37.431.005a2.436,2.436,0,0,1,2.684,2.416c.064.613.1,1.231.108,1.847a9.7,9.7,0,0,0,.731,3.791,10.16,10.16,0,0,0,8.566,6.5,17.969,17.969,0,0,0,2.191.113q39.824.008,79.649.005A10.755,10.755,0,0,0,136.8,13.4a10.237,10.237,0,0,0,5.485-9.009c.028-.729.048-1.46.121-2.185a2.431,2.431,0,0,1,2.3-2.2c.2-.015.394-.006.592-.006q8.92,0,17.841,0a18.909,18.909,0,0,1,18.591,14.882,30.552,30.552,0,0,1,.429,3.684c.043.447.008.9.008,1.352V198.159" transform="translate(0 0)" fill="#fefefe"/>
          <g id="Mockup-2" data-name="Mockup" transform="translate(0 0)" clip-path="url(#clip-path)">
            <g id="Mockup-3" data-name="Mockup" transform="translate(-0.061 0.003)">
              <rect id="Mockup-4" data-name="Mockup" width="182.215" height="396.223"/>
              <rect id="Mockup-5" data-name="Mockup" width="182.215" height="396.223" fill="url(#pattern-2)"/>
            </g>
            <use id="Shadow-2" data-name="Shadow" transform="translate(-14.774 -11.074)" xlink:href="#image-2"/>
          </g>
        </g>
      </g>
      <g id="Group_1044" data-name="Group 1044" transform="matrix(0.766, -0.643, 0.643, 0.766, 82.452, 1456.426)">
        <rect id="Shadow-3" data-name="Shadow" width="306.088" height="494.222" transform="translate(0 0)" opacity="0.329" fill="url(#pattern-3)"/>
        <use id="iPhone_X-2" data-name="iPhone X" transform="translate(76.776 22.153)" xlink:href="#image-2"/>
        <g id="Mockup-6" data-name="Mockup" transform="translate(91.549 33.227)">
          <path id="Mask-5" data-name="Mask" d="M182.17,198.159q0,89.5.005,179a18.5,18.5,0,0,1-2.841,10.106,18.7,18.7,0,0,1-13.327,8.764,16.677,16.677,0,0,1-2.693.195q-72.208.014-144.416.006A18.927,18.927,0,0,1,.238,380.307a20.971,20.971,0,0,1-.222-3.283Q0,334.875.008,292.726.008,155.963,0,19.2A18.618,18.618,0,0,1,2.565,9.438,18.509,18.509,0,0,1,15.725.31a16.735,16.735,0,0,1,2.85-.292C24.86-.008,31.146,0,37.431.005a2.436,2.436,0,0,1,2.684,2.416c.064.613.1,1.231.108,1.847a9.7,9.7,0,0,0,.731,3.791,10.16,10.16,0,0,0,8.566,6.5,17.969,17.969,0,0,0,2.191.113q39.824.008,79.649.005A10.755,10.755,0,0,0,136.8,13.4a10.237,10.237,0,0,0,5.485-9.009c.028-.729.048-1.46.121-2.185a2.431,2.431,0,0,1,2.3-2.2c.2-.015.394-.006.592-.006q8.92,0,17.841,0a18.909,18.909,0,0,1,18.591,14.882,30.552,30.552,0,0,1,.429,3.684c.043.447.008.9.008,1.352V198.159" transform="translate(0 0)" fill="#fefefe"/>
          <g id="Mockup-7" data-name="Mockup" transform="translate(0 0)" clip-path="url(#clip-path-2)">
            <g id="Mockup-8" data-name="Mockup" transform="translate(-0.061 0.003)">
              <rect id="Mockup-9" data-name="Mockup" width="182.215" height="396.223"/>
              <rect id="Mockup-10" data-name="Mockup" width="182.215" height="396.223" fill="url(#pattern-2)"/>
            </g>
            <use id="Shadow-4" data-name="Shadow" transform="translate(-14.774 -11.074)" xlink:href="#image-2"/>
          </g>
        </g>
      </g>
      <g id="Group_1045" data-name="Group 1045" transform="translate(225.991 1282.688) rotate(-20)">
        <rect id="Shadow-5" data-name="Shadow" width="306.088" height="494.222" opacity="0.329" fill="url(#pattern-3)"/>
        <use id="iPhone_X-3" data-name="iPhone X" transform="translate(76.776 22.153)" xlink:href="#image-2"/>
        <g id="Mockup-11" data-name="Mockup" transform="translate(91.549 33.227)">
          <path id="Mask-6" data-name="Mask" d="M182.17,198.16q0,89.5.005,179a18.5,18.5,0,0,1-2.841,10.106,18.7,18.7,0,0,1-13.327,8.764,16.681,16.681,0,0,1-2.693.195q-72.208.014-144.416.006A18.927,18.927,0,0,1,.238,380.307a20.971,20.971,0,0,1-.222-3.283Q0,334.875.008,292.726.008,155.963,0,19.2A18.618,18.618,0,0,1,2.565,9.438,18.509,18.509,0,0,1,15.725.31a16.735,16.735,0,0,1,2.85-.292C24.86-.008,31.146,0,37.431.005a2.436,2.436,0,0,1,2.684,2.416c.064.613.1,1.231.108,1.847a9.7,9.7,0,0,0,.731,3.791,10.16,10.16,0,0,0,8.566,6.5,17.969,17.969,0,0,0,2.191.113q39.824.008,79.648.005A10.755,10.755,0,0,0,136.8,13.4a10.237,10.237,0,0,0,5.485-9.009c.028-.729.048-1.46.121-2.185a2.431,2.431,0,0,1,2.3-2.2c.2-.015.394-.006.592-.006q8.92,0,17.841,0a18.909,18.909,0,0,1,18.591,14.882,30.549,30.549,0,0,1,.429,3.684c.043.447.008.9.008,1.352q0,89.118,0,178.237" transform="translate(0 0)" fill="#fefefe"/>
          <g id="Mockup-12" data-name="Mockup" transform="translate(0 0)" clip-path="url(#clip-path-3)">
            <g id="Mockup-13" data-name="Mockup" transform="translate(-0.061 0.003)">
              <rect id="Mockup-14" data-name="Mockup" width="182.215" height="396.223"/>
              <rect id="Mockup-15" data-name="Mockup" width="182.215" height="396.223" fill="url(#pattern-2)"/>
            </g>
            <use id="Shadow-6" data-name="Shadow" transform="translate(-14.774 -11.074)" xlink:href="#image-2"/>
          </g>
        </g>
      </g>
    </g>
  </g>
</svg>
