<svg id="Group_3340" data-name="Group 3340" xmlns="http://www.w3.org/2000/svg" width="31.724" height="39.467" viewBox="0 0 31.724 39.467">
  <rect id="Rectangle_1" data-name="Rectangle 1" width="5.745" height="14.352" transform="translate(15.794 8.608)" fill="#ff5433"/>
  <path id="Path_1" data-name="Path 1" d="M31.568,10.049V0H0V5.745H4.3v20.1H0v5.726H31.568V21.52H25.842v4.323H11.49V18.657H25.842V12.911H11.49V5.745H25.842v4.3Z" fill="#ff5433"/>
  <g id="Group_1" data-name="Group 1" transform="translate(0.096 34.237)">
    <path id="Path_2" data-name="Path 2" d="M.5,179.1H5.322v1.517H2.517v.326H5.227v1.21H2.517v.326H5.322V184H.5Z" transform="translate(-0.5 -178.925)" fill="#231f20"/>
    <path id="Path_3" data-name="Path 3" d="M34.8,183.981V179.1h2v1.671h.115l1.538-1.671h2.213l-2.056,2.171,2.095,2.709h-2.04l-1.172-1.556h-.115l-.576.6v.961Z" transform="translate(-28.209 -178.925)" fill="#231f20"/>
    <path id="Path_4" data-name="Path 4" d="M73.3,179.1h2.017v4.881H73.3Z" transform="translate(-59.313 -178.925)" fill="#231f20"/>
    <path id="Path_5" data-name="Path 5" d="M92.9,179.1h2.517l.538,2.344h.154l.538-2.344h2.517v4.881h-1.9v-1.634h-.154l-.326,1.634h-1.46l-.346-1.634h-.154v1.634h-1.9V179.1Z" transform="translate(-75.147 -178.925)" fill="#231f20"/>
    <path id="Path_6" data-name="Path 6" d="M134.906,182.717a2.373,2.373,0,0,1-.807-1.9,2.427,2.427,0,0,1,.807-1.9,3.208,3.208,0,0,1,2.171-.711,3.147,3.147,0,0,1,2.171.711,2.373,2.373,0,0,1,.807,1.9,2.426,2.426,0,0,1-.807,1.9A3.671,3.671,0,0,1,134.906,182.717Zm2.863-1.191a1.02,1.02,0,0,0,0-1.422,1.088,1.088,0,0,0-.691-.25.99.99,0,0,0-.691.25.888.888,0,0,0-.269.711.9.9,0,0,0,.289.711.99.99,0,0,0,.691.25.975.975,0,0,0,.673-.252Z" transform="translate(-108.43 -178.198)" fill="#231f20"/>
  </g>
</svg>
