<svg xmlns="http://www.w3.org/2000/svg" width="34.011" height="34" viewBox="0 0 34.011 34">
  <g id="analysis" transform="translate(0 -0.08)">
    <g id="Group_954" data-name="Group 954" transform="translate(2.28 2.349)">
      <g id="Group_953" data-name="Group 953">
        <path id="Path_5766" data-name="Path 5766" d="M44.081,32.106a11.9,11.9,0,1,0,11.9,11.9A11.9,11.9,0,0,0,44.081,32.106Zm0,1.133a10.755,10.755,0,0,1,8.792,4.573l-1.417,1.417a2.236,2.236,0,0,0-1.142-.323,2.267,2.267,0,0,0-2.267,2.267,2.236,2.236,0,0,0,.321,1.144l-3.71,3.71a2.2,2.2,0,0,0-2.288,0L39.794,43.45a2.236,2.236,0,0,0,.321-1.144,2.262,2.262,0,0,0-4.453-.567h-2.1A10.781,10.781,0,0,1,44.081,33.239Zm7.366,7.933a1.133,1.133,0,1,1-1.133-1.133A1.133,1.133,0,0,1,51.448,41.172Zm-6.8,6.8a1.133,1.133,0,1,1-1.133-1.133A1.133,1.133,0,0,1,44.648,47.972Zm-5.666-5.666a1.133,1.133,0,1,1-1.133-1.133A1.133,1.133,0,0,1,38.982,42.306ZM49.313,53.419A10.764,10.764,0,0,1,33.376,42.872h2.286a2.267,2.267,0,0,0,2.186,1.7,2.236,2.236,0,0,0,1.144-.321l2.577,2.577a2.236,2.236,0,0,0-.321,1.144,2.267,2.267,0,0,0,4.533,0,2.236,2.236,0,0,0-.321-1.144l3.71-3.71a2.236,2.236,0,0,0,1.144.321,2.267,2.267,0,0,0,2.267-2.267,2.236,2.236,0,0,0-.321-1.144L53.5,38.793A10.757,10.757,0,0,1,49.313,53.419Z" transform="translate(-32.182 -32.106)" fill="#fff"/>
      </g>
    </g>
    <g id="Group_956" data-name="Group 956" transform="translate(0 0.08)">
      <g id="Group_955" data-name="Group 955">
        <path id="Path_5767" data-name="Path 5767" d="M28.345,5.749a2.267,2.267,0,0,0,2.186-1.7h3.48V2.915h-3.48a2.262,2.262,0,0,0-4.453.567A2.236,2.236,0,0,0,26.4,4.626l-1,1a14.166,14.166,0,1,0-3.537,20.516l1.71,1.71.8.8L28.94,33.21a2.971,2.971,0,0,0,4.2-4.2L28.58,24.448l-.8-.8-1.71-1.71a14.119,14.119,0,0,0,0-15.376L27.2,5.427A2.237,2.237,0,0,0,28.345,5.749Zm0-3.4a1.133,1.133,0,1,1-1.133,1.133A1.133,1.133,0,0,1,28.345,2.349ZM32.34,29.81a1.838,1.838,0,0,1-2.569,2.628l-.03-.03L25.18,27.848l2.6-2.6Zm-5.363-5.363-2.6,2.6L22.81,25.478c.08-.061.155-.129.233-.192s.17-.138.254-.209c.124-.1.246-.21.367-.318.062-.057.121-.113.181-.17q.348-.326.675-.675c.057-.061.113-.12.17-.181.108-.12.214-.243.318-.367q.107-.126.209-.254c.062-.078.13-.153.191-.233Zm-2.2-2.632c-.178.249-.363.494-.557.729-.057.069-.117.135-.176.2q-.26.3-.537.587-.121.125-.245.245-.283.277-.587.537c-.067.057-.134.118-.2.176-.235.194-.479.379-.729.557a13.053,13.053,0,1,1,3.033-3.033Z" transform="translate(0 -0.08)" fill="#fff"/>
      </g>
    </g>
  </g>
</svg>
